<svg xmlns="http://www.w3.org/2000/svg" viewBox="0 0 640 400" role="img" aria-label="CTC Phone Manager admin dashboard illustration">
  <defs>
    <linearGradient id="adminBg" x1="0%" y1="0%" x2="100%" y2="100%">
      <stop offset="0%" stop-color="#0a1628"/>
      <stop offset="100%" stop-color="#12243d"/>
    </linearGradient>
    <linearGradient id="adminAccent" x1="0%" y1="0%" x2="100%" y2="0%">
      <stop offset="0%" stop-color="#00ff88"/>
      <stop offset="100%" stop-color="#00ffff"/>
    </linearGradient>
  </defs>
  <rect width="640" height="400" fill="url(#adminBg)"/>
  <rect x="40" y="35" width="560" height="330" rx="10" fill="#1a2f4a" stroke="#00ffff" stroke-width="2"/>
  <rect x="40" y="35" width="120" height="330" rx="10" fill="#0f1f33" stroke="#00ff8844"/>
  <text x="100" y="65" text-anchor="middle" fill="#00ff88" font-family="sans-serif" font-size="10" font-weight="600">Admin</text>
  <rect x="55" y="80" width="90" height="22" rx="4" fill="url(#adminAccent)" opacity="0.75"/>
  <rect x="55" y="112" width="90" height="22" rx="4" fill="#00ffff15" stroke="#00ffff44"/>
  <rect x="55" y="144" width="90" height="22" rx="4" fill="#00ffff15" stroke="#00ffff44"/>
  <rect x="55" y="176" width="90" height="22" rx="4" fill="#00ffff15" stroke="#00ffff44"/>
  <text x="100" y="95" text-anchor="middle" fill="#0a1628" font-family="sans-serif" font-size="9" font-weight="600">Tablets</text>
  <text x="100" y="127" text-anchor="middle" fill="#b0e0e6" font-family="sans-serif" font-size="9">Direct Pay</text>
  <text x="100" y="159" text-anchor="middle" fill="#b0e0e6" font-family="sans-serif" font-size="9">SIP/VoIP</text>
  <text x="100" y="191" text-anchor="middle" fill="#b0e0e6" font-family="sans-serif" font-size="9">Facilities</text>
  <rect x="180" y="55" width="400" height="40" rx="6" fill="#0f1f33" stroke="#00ffff44"/>
  <text x="200" y="80" fill="#b0e0e6" font-family="sans-serif" font-size="12" font-weight="600">Tablet App Management</text>
  <rect x="180" y="110" width="190" height="120" rx="6" fill="#0f1f33" stroke="#00ffff44"/>
  <text x="275" y="135" text-anchor="middle" fill="#00ff88" font-family="sans-serif" font-size="10">Facility Apps</text>
  <rect x="195" y="148" width="160" height="14" rx="3" fill="#00ffff15"/>
  <rect x="195" y="168" width="160" height="14" rx="3" fill="#00ffff15"/>
  <rect x="195" y="188" width="160" height="14" rx="3" fill="#00ffff15"/>
  <rect x="390" y="110" width="190" height="120" rx="6" fill="#0f1f33" stroke="#00ffff44"/>
  <text x="485" y="135" text-anchor="middle" fill="#00ff88" font-family="sans-serif" font-size="10">3rd Party APKs</text>
  <rect x="405" y="148" width="160" height="14" rx="3" fill="#00ffff15"/>
  <rect x="405" y="168" width="160" height="14" rx="3" fill="#00ffff15"/>
  <rect x="405" y="188" width="100" height="20" rx="4" fill="#ff664422" stroke="#ff6644"/>
  <text x="455" y="202" text-anchor="middle" fill="#ff9988" font-family="sans-serif" font-size="8">Confirm Disable</text>
  <rect x="180" y="245" width="400" height="100" rx="6" fill="#0f1f33" stroke="#00ffff44"/>
  <text x="200" y="270" fill="#b0e0e6" font-family="sans-serif" font-size="10">Direct Pay · Account Search · Transaction Edit/Void</text>
  <rect x="200" y="285" width="360" height="12" rx="2" fill="#00ffff15"/>
  <rect x="200" y="305" width="360" height="12" rx="2" fill="#00ffff15"/>
  <text x="320" y="385" text-anchor="middle" fill="#8899aa" font-family="sans-serif" font-size="12">Phone Manager Admin · React 18</text>
</svg>
