<svg xmlns="http://www.w3.org/2000/svg" viewBox="0 0 640 400" role="img" aria-label="Generic Android kiosk tablet interface illustration">
  <defs>
    <linearGradient id="bg" x1="0%" y1="0%" x2="100%" y2="100%">
      <stop offset="0%" stop-color="#0a1628"/>
      <stop offset="100%" stop-color="#12243d"/>
    </linearGradient>
    <linearGradient id="screen" x1="0%" y1="0%" x2="0%" y2="100%">
      <stop offset="0%" stop-color="#1a2f4a"/>
      <stop offset="100%" stop-color="#0f1f33"/>
    </linearGradient>
    <linearGradient id="accent" x1="0%" y1="0%" x2="100%" y2="0%">
      <stop offset="0%" stop-color="#00ff88"/>
      <stop offset="100%" stop-color="#00ffff"/>
    </linearGradient>
  </defs>
  <rect width="640" height="400" fill="url(#bg)"/>
  <rect x="180" y="30" width="280" height="340" rx="24" fill="#1c2e45" stroke="#00ffff" stroke-width="3"/>
  <rect x="200" y="55" width="240" height="290" rx="8" fill="url(#screen)" stroke="#00ff8844" stroke-width="1"/>
  <rect x="295" y="42" width="50" height="8" rx="4" fill="#334"/>
  <circle cx="320" cy="360" r="12" fill="#334" stroke="#00ffff55"/>
  <rect x="220" y="80" width="200" height="28" rx="6" fill="url(#accent)" opacity="0.85"/>
  <rect x="220" y="120" width="90" height="70" rx="8" fill="#00ffff22" stroke="#00ffff88"/>
  <rect x="330" y="120" width="90" height="70" rx="8" fill="#00ffff22" stroke="#00ffff88"/>
  <rect x="220" y="205" width="90" height="70" rx="8" fill="#00ffff22" stroke="#00ffff88"/>
  <rect x="330" y="205" width="90" height="70" rx="8" fill="#00ffff22" stroke="#00ffff88"/>
  <rect x="220" y="290" width="200" height="36" rx="8" fill="#00ff8822" stroke="#00ff8888"/>
  <text x="320" y="98" text-anchor="middle" fill="#0a1628" font-family="sans-serif" font-size="13" font-weight="700">KIOSK MENU</text>
  <text x="265" y="162" text-anchor="middle" fill="#b0e0e6" font-family="sans-serif" font-size="11">Phone</text>
  <text x="375" y="162" text-anchor="middle" fill="#b0e0e6" font-family="sans-serif" font-size="11">Visits</text>
  <text x="265" y="247" text-anchor="middle" fill="#b0e0e6" font-family="sans-serif" font-size="11">Messages</text>
  <text x="375" y="247" text-anchor="middle" fill="#b0e0e6" font-family="sans-serif" font-size="11">Apps</text>
  <text x="320" y="312" text-anchor="middle" fill="#00ff88" font-family="sans-serif" font-size="11">Android Kiosk UI</text>
  <text x="320" y="385" text-anchor="middle" fill="#8899aa" font-family="sans-serif" font-size="12">Inmate Tablet · Illustration</text>
</svg>
