<svg xmlns="http://www.w3.org/2000/svg" viewBox="0 0 640 400" role="img" aria-label="Wellness Protocol Tracker illustration">
  <defs>
    <linearGradient id="wellBg" x1="0%" y1="0%" x2="100%" y2="100%">
      <stop offset="0%" stop-color="#0a1628"/>
      <stop offset="100%" stop-color="#12243d"/>
    </linearGradient>
    <linearGradient id="wellAccent" x1="0%" y1="0%" x2="100%" y2="0%">
      <stop offset="0%" stop-color="#00ff88"/>
      <stop offset="100%" stop-color="#00ffff"/>
    </linearGradient>
  </defs>
  <rect width="640" height="400" fill="url(#wellBg)"/>
  <rect x="60" y="40" width="520" height="320" rx="12" fill="#1a2f4a" stroke="#00ffff" stroke-width="2"/>
  <rect x="80" y="60" width="160" height="280" rx="8" fill="#0f1f33" stroke="#00ff8844"/>
  <text x="160" y="88" text-anchor="middle" fill="#00ff88" font-family="sans-serif" font-size="11" font-weight="600">Protocols</text>
  <rect x="95" y="100" width="130" height="28" rx="4" fill="url(#wellAccent)" opacity="0.7"/>
  <rect x="95" y="140" width="130" height="28" rx="4" fill="#00ffff15" stroke="#00ffff44"/>
  <rect x="95" y="180" width="130" height="28" rx="4" fill="#00ffff15" stroke="#00ffff44"/>
  <rect x="260" y="60" width="300" height="130" rx="8" fill="#0f1f33" stroke="#00ffff44"/>
  <text x="280" y="88" fill="#b0e0e6" font-family="sans-serif" font-size="11">Stage 2 · Supplements &amp; Logs</text>
  <polyline points="280,150 320,120 360,135 400,110 440,125 480,100 520,115" fill="none" stroke="#00ff88" stroke-width="2"/>
  <rect x="260" y="210" width="145" height="130" rx="8" fill="#0f1f33" stroke="#00ffff44"/>
  <text x="332" y="238" text-anchor="middle" fill="#00ff88" font-family="sans-serif" font-size="11">Lab Values</text>
  <rect x="415" y="210" width="145" height="130" rx="8" fill="#0f1f33" stroke="#00ffff44"/>
  <text x="487" y="238" text-anchor="middle" fill="#00ff88" font-family="sans-serif" font-size="11">Documents</text>
  <text x="320" y="385" text-anchor="middle" fill="#8899aa" font-family="sans-serif" font-size="12">Protocol Tracker · Next.js</text>
</svg>
